<svg xmlns="http://www.w3.org/2000/svg" width="4" height="4" viewBox="254 254 4 4" enable-background="new 254 254 4 4"><path fill="#65655D" d="M254.716 257.83c-.188 0-.366-.073-.5-.206-.274-.275-.274-.724 0-1l2.184-2.182c.176-.176.41-.273.66-.273s.48.096.657.272c.177.176.273.41.273.66 0 .248-.097.482-.273.658L256 257.478c-.053.052-.136.052-.188 0-.05-.052-.05-.135 0-.187l1.718-1.717c.126-.126.195-.294.195-.472s-.07-.345-.195-.47c-.126-.127-.294-.197-.472-.197-.18 0-.347.07-.473.196l-2.183 2.182c-.172.173-.172.453 0 .625.167.167.458.167.625 0l1.466-1.466c.04-.04.062-.094.062-.15 0-.057-.022-.11-.062-.15-.083-.084-.22-.084-.302 0l-1 1c-.052.052-.135.052-.187 0s-.052-.136 0-.187l1-1c.188-.188.49-.188.677 0 .09.09.14.21.14.337 0 .125-.05.25-.14.338l-1.465 1.466c-.133.133-.31.206-.5.206z"/></svg>